<?xml version="1.0" standalone="no"?>
<!DOCTYPE svg PUBLIC "-//W3C//DTD SVG 20010904//EN"
 "http://www.w3.org/TR/2001/REC-SVG-20010904/DTD/svg10.dtd">
<svg version="1.0" xmlns="http://www.w3.org/2000/svg"
 width="373.000000pt" height="373.000000pt" viewBox="0 0 373.000000 373.000000"
 preserveAspectRatio="xMidYMid meet">
<metadata>
Created by potrace 1.14, written by Peter Selinger 2001-2017
</metadata>
<g transform="translate(0.000000,373.000000) scale(0.100000,-0.100000)"
fill="#000000" stroke="none">
<path d="M0 1865 l0 -1865 1865 0 1865 0 0 1865 0 1865 -1865 0 -1865 0 0
-1865z m2169 1395 c22 0 66 -39 75 -66 4 -10 13 -27 20 -37 14 -18 15 -18 35
2 12 12 30 21 41 21 11 0 20 4 20 9 0 5 9 13 20 16 24 7 63 -3 55 -15 -3 -4 6
-11 20 -14 14 -4 25 -13 25 -20 0 -8 6 -16 13 -19 19 -7 78 -98 71 -108 -3 -5
0 -9 6 -9 6 0 14 -8 17 -17 4 -10 24 -33 45 -51 21 -19 38 -38 38 -44 0 -6 8
-17 18 -24 13 -10 18 -30 20 -96 4 -99 -16 -156 -79 -220 -21 -22 -39 -47 -39
-54 0 -8 -4 -14 -9 -14 -5 0 -12 -8 -15 -17 -3 -10 -31 -36 -61 -58 -53 -38
-55 -41 -49 -75 4 -19 10 -42 14 -50 14 -29 33 -126 36 -180 1 -30 8 -93 16
-140 17 -104 9 -176 -29 -257 -29 -62 -94 -143 -128 -156 -19 -9 -20 -9 -1
-20 34 -21 85 -68 117 -108 29 -37 69 -128 69 -158 0 -8 12 -38 26 -68 25 -49
26 -61 22 -146 -6 -109 -30 -200 -64 -242 -23 -29 -27 -30 -103 -31 -47 0 -91
-6 -105 -14 -23 -12 -31 -11 -63 6 -43 21 -111 88 -124 121 -7 20 -13 21 -66
16 -32 -2 -80 -9 -108 -13 -48 -9 -51 -8 -77 21 l-26 31 -18 -37 c-17 -37 -68
-70 -88 -58 -5 4 -6 1 -3 -4 8 -13 -14 -23 -48 -23 -33 0 -55 10 -55 25 0 40
-81 24 -133 -26 -23 -21 -46 -39 -52 -39 -5 0 -23 -7 -39 -15 -16 -9 -32 -12
-35 -7 -3 5 -17 13 -31 17 -14 4 -30 15 -37 24 -10 14 -16 14 -44 4 -17 -7
-36 -10 -40 -7 -5 3 -28 31 -52 62 -47 61 -90 183 -68 190 9 3 9 8 1 17 -8 9
-6 14 5 19 8 3 15 10 15 15 0 6 -6 8 -14 5 -8 -3 -17 -1 -21 5 -3 6 -3 11 2
12 54 5 62 15 18 23 -19 4 -35 11 -35 16 0 6 3 9 7 9 5 -1 24 0 43 1 l35 2
-43 11 c-41 10 -60 30 -24 26 34 -3 85 1 79 7 -3 3 -25 7 -48 8 -24 1 -45 8
-47 15 -3 9 7 12 37 10 22 -2 41 1 41 6 0 6 -13 11 -28 11 -48 2 -53 4 -47 14
3 6 24 10 46 10 21 0 39 5 39 10 0 6 -21 10 -46 10 -27 0 -43 4 -39 10 3 5 28
10 56 10 29 0 49 4 49 11 0 7 -18 10 -50 7 -46 -3 -50 -1 -50 19 0 45 8 51 64
46 34 -3 56 0 61 7 5 8 -9 10 -49 8 -31 -2 -56 -1 -56 4 0 32 116 100 183 107
4 1 7 7 7 15 0 8 7 16 15 20 8 3 15 12 15 20 0 16 59 32 83 23 8 -3 20 -1 28
4 9 6 0 9 -28 9 -40 0 -64 19 -25 21 40 1 137 11 141 15 2 2 -23 4 -57 4 -62
0 -83 14 -38 26 14 3 52 3 85 0 39 -4 61 -3 61 4 0 5 -8 10 -17 11 -10 0 -71
1 -135 3 -65 1 -121 5 -125 9 -6 6 109 12 195 9 17 0 32 4 32 9 0 10 -21 11
-208 11 -97 0 -132 3 -129 11 3 11 116 14 262 7 36 -1 62 3 71 13 4 4 0 7 -9
7 -24 0 -21 21 3 27 11 3 17 9 14 14 -3 5 -10 7 -15 4 -5 -4 -9 -2 -9 3 0 6 6
12 14 15 9 4 12 14 9 26 -5 18 -1 21 33 22 25 1 30 3 14 6 -78 12 -91 15 -85
21 8 8 13 9 62 11 61 2 30 12 -51 16 -77 4 -94 -3 -53 -23 20 -10 19 -11 -14
-11 -59 -1 -55 -15 8 -27 l58 -10 -77 -8 c-43 -5 -85 -6 -93 -2 -23 8 -9 26
21 26 14 0 22 4 19 10 -3 6 -16 10 -27 10 -20 0 -17 13 3 16 5 1 14 2 19 3 6
0 10 10 10 21 0 11 5 20 10 20 6 0 10 5 10 10 0 6 -10 10 -21 10 -18 0 -19 3
-9 15 6 8 9 19 5 25 -4 6 -1 17 5 25 10 13 8 15 -14 13 -27 -2 -35 -13 -13
-21 19 -7 1 -19 -40 -27 l-38 -8 38 -1 c46 -1 49 -17 5 -27 -32 -7 -32 -7 -9
-16 13 -4 22 -11 19 -13 -2 -3 -47 -7 -99 -11 -91 -5 -135 -14 -71 -14 32 0
44 -14 20 -22 -18 -6 -98 0 -117 8 -11 5 -4 10 24 14 l40 7 -45 2 c-55 2 -83
16 -60 31 13 8 12 10 -4 10 -13 0 -17 5 -13 20 3 11 1 23 -4 26 -17 10 12 34
35 29 60 -12 113 -14 150 -3 26 7 34 13 24 15 -10 3 -18 8 -18 13 0 4 8 7 18
6 11 0 17 6 17 18 0 13 9 20 25 23 26 4 53 23 32 23 -7 0 -12 5 -12 10 0 6 9
10 19 10 11 0 23 5 26 10 6 9 -55 15 -112 10 -12 0 -37 7 -55 16 -38 20 -228
31 -228 13 0 -6 13 -8 30 -5 32 5 70 -2 70 -13 0 -4 -12 -12 -27 -18 -26 -10
-25 -11 20 -12 86 -2 51 -21 -40 -22 -101 -1 -88 -17 15 -18 34 -1 62 -5 62
-11 0 -6 -27 -10 -61 -10 -50 0 -60 -3 -56 -15 10 -24 -12 -29 -120 -28 -57 1
-103 -3 -103 -8 0 -5 45 -9 100 -9 100 0 124 -9 73 -28 -25 -9 -26 -10 -5 -11
26 -1 29 -16 5 -30 -17 -10 -17 -10 0 -11 23 0 22 -17 -2 -25 -12 -4 -18 -12
-14 -21 4 -10 -3 -14 -26 -14 -33 0 -43 16 -13 22 9 3 -28 8 -83 12 -118 10
-105 24 23 25 124 1 99 16 -30 18 -137 2 -128 1 -128 13 0 6 10 10 23 11 17 1
15 3 -10 11 -18 6 -33 15 -33 19 0 5 3 8 8 8 34 -6 102 3 97 12 -4 6 -13 8
-19 6 -7 -3 -19 -1 -27 3 -11 8 -11 10 1 14 8 2 22 7 30 9 9 3 2 8 -17 12 -18
4 -33 13 -33 19 0 6 -13 24 -29 39 -29 29 -47 79 -30 85 5 2 9 11 9 20 0 10 8
27 18 38 18 22 120 74 145 74 9 0 37 12 65 26 58 30 98 39 172 38 53 -1 139
-25 170 -48 8 -6 37 -22 63 -36 26 -14 59 -35 74 -47 37 -32 53 -29 106 20 60
54 103 87 114 87 4 0 14 9 21 20 7 11 19 20 27 20 8 0 18 6 22 13 4 6 25 20
46 30 41 19 92 23 82 7 -3 -5 1 -10 10 -10 9 0 14 4 10 9 -3 5 12 15 32 21 21
7 49 19 63 26 43 23 117 52 149 59 22 5 47 -1 93 -22 35 -15 65 -31 66 -35 2
-4 8 -8 13 -8 15 0 10 38 -11 75 -11 19 -16 35 -12 36 4 0 -6 7 -23 14 -25 11
-27 15 -13 20 24 9 13 25 -17 25 -13 0 -27 5 -30 10 -3 6 3 10 14 10 12 0 21
5 21 10 0 6 -13 10 -29 10 -17 0 -33 5 -36 10 -4 6 8 10 29 10 19 0 37 4 40 9
3 4 -5 8 -17 8 -59 1 -77 4 -77 13 0 6 21 10 48 10 38 1 44 3 29 11 -11 6 -30
9 -43 6 -13 -2 -32 2 -41 9 -15 11 -5 13 72 14 68 0 97 4 114 17 19 13 28 14
42 5 24 -15 29 -15 29 3 0 7 6 18 14 22 7 4 17 18 20 31 6 18 4 22 -14 22 -12
0 -33 -9 -47 -20 -14 -11 -32 -20 -39 -20 -8 0 -14 -8 -14 -19 0 -20 -34 -31
-80 -26 -14 1 -33 3 -43 4 -10 0 -20 8 -24 17 -3 9 -16 27 -28 40 -57 61 -56
127 0 188 19 21 35 41 35 44 0 2 12 16 27 30 29 27 70 43 91 36 8 -2 22 -4 31
-4z m-1539 -1110 c0 -5 -4 -10 -10 -10 -5 0 -10 5 -10 10 0 6 5 10 10 10 6 0
10 -4 10 -10z m10 -40 c0 -5 -9 -10 -21 -10 -11 0 -17 5 -14 10 3 6 13 10 21
10 8 0 14 -4 14 -10z m155 -160 c4 -6 -10 -10 -34 -11 -23 -1 -51 -2 -63 -2
-12 -1 -23 4 -26 11 -5 15 114 17 123 2z m510 -1 c4 -5 -8 -9 -25 -9 -17 0
-29 4 -26 8 7 11 45 12 51 1z m-485 -39 c24 -7 23 -7 -10 -14 -46 -8 -108 -2
-123 13 -13 13 91 14 133 1z m470 0 c0 -5 -2 -10 -4 -10 -3 0 -8 5 -11 10 -3
6 -1 10 4 10 6 0 11 -4 11 -10z m-437 -39 c10 0 15 -5 12 -11 -11 -18 -155
-10 -155 9 0 6 79 7 143 2z m292 -1 c3 -6 -4 -10 -17 -10 -18 0 -20 2 -8 10
19 12 18 12 25 0z m321 0 c14 -5 8 -9 -21 -15 l-40 -8 35 -12 35 -12 -31 -7
c-18 -4 -73 -6 -123 -4 -77 2 -89 5 -74 15 9 7 20 13 24 13 4 0 9 9 12 21 5
19 12 20 85 18 44 -2 88 -6 98 -9z m-521 -39 c39 -2 45 -4 29 -11 -12 -4 -70
-7 -130 -6 -131 4 -150 6 -104 16 33 6 88 6 205 1z m34 -40 c2 -1 1 -4 -2 -7
-11 -12 -80 -15 -147 -7 -60 6 -62 7 -30 14 27 5 133 5 179 0z m-48 -50 c-10
-7 -44 -7 -96 0 -11 1 5 5 35 8 57 7 80 3 61 -8z m354 9 c11 -5 18 -9 15 -10
-26 -8 -49 -9 -69 -4 -20 4 -22 7 -10 15 17 11 37 10 64 -1z m-4 -40 c6 0 7
-4 4 -10 -8 -13 -65 -13 -65 -1 0 12 21 21 38 15 8 -2 18 -4 23 -4z m-388 -7
c-7 -2 -21 -2 -30 0 -10 3 -4 5 12 5 17 0 24 -2 18 -5z m510 -4 c-8 -8 -19 -8
-40 -1 -28 10 -28 10 12 11 28 1 36 -2 28 -10z m-86 -35 c-11 -12 -75 -15 -82
-4 -4 6 12 10 41 10 26 0 44 -3 41 -6z"/>
<path d="M2380 2980 c0 -5 5 -10 10 -10 6 0 10 5 10 10 0 6 -4 10 -10 10 -5 0
-10 -4 -10 -10z"/>
<path d="M2380 2938 c0 -4 9 -8 20 -8 11 0 20 4 20 9 0 6 -9 9 -20 8 -11 -1
-20 -5 -20 -9z"/>
<path d="M2370 2902 c0 -12 58 -13 65 -1 4 5 -10 9 -29 9 -20 0 -36 -4 -36 -8z"/>
<path d="M2250 2860 c20 -13 33 -13 25 0 -3 6 -14 10 -23 10 -15 0 -15 -2 -2
-10z"/>
<path d="M2350 2860 c0 -5 5 -10 10 -10 6 0 10 5 10 10 0 6 -4 10 -10 10 -5 0
-10 -4 -10 -10z"/>
<path d="M2390 2861 c0 -5 9 -7 20 -4 11 3 20 7 20 9 0 2 -9 4 -20 4 -11 0
-20 -4 -20 -9z"/>
<path d="M2286 2818 c3 -4 18 -8 35 -8 16 0 29 4 29 8 0 4 -15 8 -34 8 -19 0
-32 -4 -30 -8z"/>
<path d="M2366 2819 c7 -11 74 -12 74 -1 0 4 -18 8 -40 9 -22 0 -37 -3 -34 -8z"/>
<path d="M2390 2779 c0 -5 9 -9 20 -9 11 0 20 4 20 8 0 4 -9 8 -20 9 -11 1
-20 -2 -20 -8z"/>
<path d="M2443 2778 c3 -12 11 -13 55 -9 15 2 14 3 -3 11 -30 13 -57 12 -52
-2z"/>
<path d="M2400 2740 c0 -5 12 -10 28 -9 24 0 25 1 7 9 -27 12 -35 12 -35 0z"/>
<path d="M2382 2625 c-11 -12 -10 -15 3 -15 8 0 15 7 15 15 0 18 -2 18 -18 0z"/>
<path d="M2435 2580 c-3 -5 -1 -10 4 -10 6 0 11 5 11 10 0 6 -2 10 -4 10 -3 0
-8 -4 -11 -10z"/>
<path d="M2318 2573 c7 -3 16 -2 19 1 4 3 -2 6 -13 5 -11 0 -14 -3 -6 -6z"/>
<path d="M2294 2531 c5 -8 56 -3 56 5 0 2 -14 4 -31 4 -16 0 -28 -4 -25 -9z"/>
<path d="M2400 2531 c0 -5 9 -7 20 -4 11 3 20 7 20 9 0 2 -9 4 -20 4 -11 0
-20 -4 -20 -9z"/>
<path d="M2315 2500 c-4 -6 12 -10 42 -9 36 0 43 3 28 9 -28 12 -63 12 -70 0z"/>
<path d="M1658 2453 c7 -3 16 -2 19 1 4 3 -2 6 -13 5 -11 0 -14 -3 -6 -6z"/>
<path d="M1523 2413 c9 -2 25 -2 35 0 9 3 1 5 -18 5 -19 0 -27 -2 -17 -5z"/>
<path d="M1543 2373 c9 -2 23 -2 30 0 6 3 -1 5 -18 5 -16 0 -22 -2 -12 -5z"/>
<path d="M1473 2334 c7 -7 158 -6 165 1 3 3 -34 5 -83 5 -49 0 -86 -3 -82 -6z"/>
<path d="M1470 2292 c0 -5 7 -9 15 -9 8 0 15 4 15 9 0 4 -7 8 -15 8 -8 0 -15
-4 -15 -8z"/>
<path d="M1529 2287 c4 -4 18 -3 32 2 23 9 22 9 -8 8 -18 -1 -28 -6 -24 -10z"/>
<path d="M1595 2290 c4 -6 11 -8 16 -5 14 9 11 15 -7 15 -8 0 -12 -5 -9 -10z"/>
<path d="M1530 2249 c0 -5 5 -7 10 -4 6 3 10 8 10 11 0 2 -4 4 -10 4 -5 0 -10
-5 -10 -11z"/>
<path d="M1565 2250 c3 -5 10 -10 16 -10 5 0 9 5 9 10 0 6 -7 10 -16 10 -8 0
-12 -4 -9 -10z"/>
<path d="M785 2210 c3 -5 8 -10 11 -10 2 0 4 5 4 10 0 6 -5 10 -11 10 -5 0 -7
-4 -4 -10z"/>
<path d="M928 2213 c7 -3 16 -2 19 1 4 3 -2 6 -13 5 -11 0 -14 -3 -6 -6z"/>
<path d="M1477 2208 c6 -10 103 -6 110 4 2 5 -22 7 -55 6 -33 -2 -58 -6 -55
-10z"/>
<path d="M790 2170 c0 -5 7 -10 16 -10 8 0 12 5 9 10 -3 6 -10 10 -16 10 -5 0
-9 -4 -9 -10z"/>
<path d="M1415 2170 c-4 -6 7 -10 25 -10 18 0 29 4 25 10 -3 6 -15 10 -25 10
-10 0 -22 -4 -25 -10z"/>
<path d="M1490 2170 c0 -5 14 -10 30 -10 17 0 30 5 30 10 0 6 -13 10 -30 10
-16 0 -30 -4 -30 -10z"/>
<path d="M1565 2170 c-3 -5 1 -10 9 -10 9 0 16 5 16 10 0 6 -4 10 -9 10 -6 0
-13 -4 -16 -10z"/>
<path d="M810 2130 c0 -5 15 -10 33 -9 27 0 29 2 12 9 -28 12 -45 12 -45 0z"/>
<path d="M1380 2130 c0 -5 40 -8 90 -8 49 0 88 4 85 7 -6 10 -175 11 -175 1z"/>
<path d="M1470 2088 c0 -4 16 -8 35 -8 19 0 35 3 35 8 0 4 -16 7 -35 8 -19 0
-35 -3 -35 -8z"/>
<path d="M1570 2090 c0 -6 7 -10 15 -10 8 0 15 2 15 4 0 2 -7 6 -15 10 -8 3
-15 1 -15 -4z"/>
<path d="M670 2050 c0 -13 31 -16 115 -10 55 3 71 7 51 11 -41 9 -166 9 -166
-1z"/>
<path d="M1500 2050 c-24 -8 -23 -8 8 -9 17 -1 32 4 32 9 0 11 -5 11 -40 0z"/>
<path d="M1557 2048 c2 -5 10 -8 18 -8 8 0 16 3 18 8 3 4 -5 7 -18 7 -13 0
-21 -3 -18 -7z"/>
<path d="M1460 2010 c-13 -8 -12 -10 3 -10 9 0 17 5 17 10 0 12 -1 12 -20 0z"/>
<path d="M1490 2009 c0 -5 17 -9 37 -9 43 0 39 9 -6 15 -17 2 -31 -1 -31 -6z"/>
<path d="M1138 2003 c7 -3 16 -2 19 1 4 3 -2 6 -13 5 -11 0 -14 -3 -6 -6z"/>
<path d="M1188 2003 c12 -2 30 -2 40 0 9 3 -1 5 -23 4 -22 0 -30 -2 -17 -4z"/>
<path d="M1598 1763 c7 -3 16 -2 19 1 4 3 -2 6 -13 5 -11 0 -14 -3 -6 -6z"/>
<path d="M1480 1640 c0 -5 5 -10 10 -10 6 0 10 5 10 10 0 6 -4 10 -10 10 -5 0
-10 -4 -10 -10z"/>
<path d="M1397 1598 c28 -6 49 -6 60 1 14 8 4 10 -42 10 l-60 -1 42 -10z"/>
<path d="M1416 1518 c3 -5 10 -6 15 -3 13 9 11 12 -6 12 -8 0 -12 -4 -9 -9z"/>
<path d="M1171 1481 c-9 -6 -5 -8 13 -8 14 0 26 3 26 8 0 11 -21 11 -39 0z"/>
<path d="M1124 1399 c-3 -5 13 -9 35 -9 52 0 61 15 10 16 -22 1 -42 -2 -45 -7z"/>
<path d="M1303 1393 c9 -2 23 -2 30 0 6 3 -1 5 -18 5 -16 0 -22 -2 -12 -5z"/>
<path d="M1295 1360 c-4 -6 3 -10 14 -10 25 0 27 6 6 13 -8 4 -17 2 -20 -3z"/>
<path d="M1265 1320 c-18 -8 -17 -9 7 -9 15 -1 30 4 33 9 7 12 -12 12 -40 0z"/>
<path d="M1225 1280 c-16 -7 -13 -9 18 -9 20 -1 37 4 37 9 0 12 -27 12 -55 0z"/>
<path d="M1248 1193 c6 -2 18 -2 25 0 6 3 1 5 -13 5 -14 0 -19 -2 -12 -5z"/>
<path d="M1245 1160 c-18 -8 -17 -9 8 -9 16 -1 26 3 22 9 -3 6 -7 10 -8 9 -1
0 -11 -4 -22 -9z"/>
<path d="M1228 1113 c6 -2 18 -2 25 0 6 3 1 5 -13 5 -14 0 -19 -2 -12 -5z"/>
<path d="M1220 1070 c0 -5 9 -10 19 -10 11 0 23 5 26 10 4 6 -5 10 -19 10 -14
0 -26 -4 -26 -10z"/>
<path d="M1217 1042 c-42 -4 -41 -22 1 -22 29 0 60 15 46 21 -5 3 -26 3 -47 1z"/>
<path d="M1213 1003 c-7 -2 -13 -9 -13 -15 0 -12 41 -6 41 7 1 12 -11 15 -28
8z"/>
<path d="M1216 961 c-4 -5 -2 -12 3 -15 5 -4 12 -2 15 3 4 5 2 12 -3 15 -5 4
-12 2 -15 -3z"/>
<path d="M1308 1843 c7 -3 16 -2 19 1 4 3 -2 6 -13 5 -11 0 -14 -3 -6 -6z"/>
<path d="M1363 1843 c9 -2 23 -2 30 0 6 3 -1 5 -18 5 -16 0 -22 -2 -12 -5z"/>
</g>
</svg>
